<svg width="28" height="28" viewBox="0 0 28 28" fill="none" xmlns="http://www.w3.org/2000/svg">
<g clip-path="url(#clip0_1_2)">
<path d="M24.5 28H3.5C1.567 28 0 26.433 0 24.5V3.5C0 1.567 1.567 0 3.5 0H24.5C26.433 0 28 1.567 28 3.5V24.5C28 26.433 26.433 28 24.5 28Z" fill="#004C51"/>
<path d="M6.12493 5.001L5 6.12587L7.47484 9.59158C7.57903 9.73752 7.7166 9.85644 7.87608 9.93843C8.03556 10.0204 8.21233 10.0631 8.39166 10.0629H8.4704C8.61831 10.0628 8.76478 10.0918 8.90145 10.1484C9.03811 10.2049 9.16228 10.2879 9.26685 10.3925L12.276 13.4015L9.33209 16.3869C8.82857 16.2387 8.29743 16.2098 7.78082 16.3026C7.2642 16.3954 6.77632 16.6073 6.35587 16.9215C5.93543 17.2357 5.59398 17.6436 5.35863 18.1127C5.12328 18.5819 5.00049 19.0994 5 19.6242C5.00067 20.1079 5.1053 20.5857 5.30678 21.0254C5.50826 21.465 5.8019 21.8562 6.16779 22.1725C6.53369 22.4888 6.96329 22.7227 7.4275 22.8585C7.8917 22.9942 8.37967 23.0286 8.85833 22.9593C9.33699 22.89 9.79516 22.7187 10.2018 22.4568C10.6084 22.195 10.9541 21.8488 11.2152 21.4418C11.4764 21.0347 11.647 20.5763 11.7155 20.0976C11.784 19.6188 11.7488 19.1309 11.6123 18.667L14.5979 15.7232L15.6868 16.8121L15.3437 17.8402C15.2778 18.0384 15.2683 18.251 15.3164 18.4542C15.3645 18.6575 15.4682 18.8433 15.6159 18.9909L19.2944 22.6692C19.3987 22.7741 19.5226 22.8573 19.6591 22.914C19.7956 22.9708 19.9419 23 20.0898 23C20.2376 23 20.384 22.9708 20.5205 22.914C20.6569 22.8573 20.7809 22.7741 20.8851 22.6692L22.6692 20.8852C22.7741 20.781 22.8572 20.6571 22.914 20.5206C22.9708 20.3841 23 20.2378 23 20.0899C23 19.9421 22.9708 19.7958 22.914 19.6593C22.8572 19.5228 22.7741 19.3989 22.6692 19.2947L18.9907 15.6164C18.8431 15.4686 18.6572 15.3649 18.454 15.3168C18.2507 15.2688 18.0381 15.2782 17.8399 15.3441L16.8117 15.6872L15.7318 14.6073L18.7466 11.6343C19.2467 11.7678 19.7708 11.7847 20.2785 11.6836C20.7862 11.5825 21.2639 11.3662 21.6747 11.0514C22.0856 10.7365 22.4186 10.3315 22.6482 9.86758C22.8778 9.40365 22.9977 8.89321 22.9988 8.3756C22.9988 8.07301 22.9595 7.77942 22.8841 7.50158L20.4767 9.90991L18.4991 9.50046L18.0897 7.52408L20.4981 5.11574C19.9252 4.9617 19.3218 4.96142 18.7487 5.11491C18.1756 5.2684 17.6531 5.57024 17.2339 5.99002C16.8147 6.40979 16.5135 6.93266 16.3608 7.50591C16.2081 8.07917 16.2092 8.68255 16.364 9.25524L13.3942 12.2676L10.3918 9.26762C10.1808 9.05671 10.0622 8.77064 10.0622 8.47234V8.39247C10.0622 8.21335 10.0194 8.03681 9.93744 7.87755C9.85546 7.71828 9.73662 7.5809 9.59083 7.47683L6.12493 5.001ZM16.976 16.9763C17.0282 16.9239 17.0903 16.8824 17.1586 16.854C17.227 16.8257 17.3002 16.8111 17.3742 16.8111C17.4482 16.8111 17.5214 16.8257 17.5898 16.854C17.6581 16.8824 17.7202 16.9239 17.7724 16.9763L21.0505 20.2553C21.1529 20.3614 21.2096 20.5034 21.2083 20.6509C21.207 20.7984 21.1479 20.9394 21.0436 21.0437C20.9393 21.148 20.7983 21.2071 20.6508 21.2084C20.5033 21.2097 20.3612 21.153 20.2551 21.0506L16.976 17.7727C16.9236 17.7205 16.882 17.6584 16.8537 17.5901C16.8253 17.5217 16.8107 17.4485 16.8107 17.3745C16.8107 17.3005 16.8253 17.2273 16.8537 17.159C16.882 17.0906 16.9236 17.0286 16.976 16.9763ZM8.37478 17.3745L8.90462 17.6467L9.49971 17.676L9.82256 18.1765L10.3232 18.4994L10.3524 19.0944L10.6246 19.6242L10.3524 20.1541L10.3232 20.7491L9.82256 21.0719L9.49971 21.5725L8.90462 21.6018L8.37478 21.874L7.84494 21.6018L7.24985 21.5725L6.927 21.0719L6.42641 20.7491L6.39716 20.1541L6.12493 19.6242L6.39716 19.0944L6.42641 18.4994L6.927 18.1765L7.24985 17.676L7.84494 17.6467L8.37478 17.3745Z" fill="white"/>
</g>
<defs>
<clipPath id="clip0_1_2">
<rect width="28" height="28" fill="white"/>
</clipPath>
</defs>
</svg>
